<?xml version="1.0" encoding="UTF-8"?>
<svg id="Layer_1" xmlns="http://www.w3.org/2000/svg" version="1.1" xmlns:xlink="http://www.w3.org/1999/xlink" viewBox="0 0 514.87 175.9">
  <!-- Generator: Adobe Illustrator 29.2.1, SVG Export Plug-In . SVG Version: 2.1.0 Build 116)  -->
  <defs>
    <style>
      .st0, .st1 {
        stroke: #8ef07f;
        stroke-width: 12px;
      }

      .st0, .st1, .st2, .st3 {
        stroke-miterlimit: 10;
      }

      .st0, .st2, .st3 {
        fill: none;
      }

      .st1 {
        fill: #fff;
      }

      .st2 {
        stroke: url(#linear-gradient1);
      }

      .st2, .st3 {
        stroke-width: 2px;
      }

      .st3 {
        stroke: url(#linear-gradient);
      }

      .st4 {
        fill: #8ef07f;
      }
    </style>
    <linearGradient id="linear-gradient" x1="496.04" y1="96.93" x2="514.87" y2="96.93" gradientUnits="userSpaceOnUse">
      <stop offset="0" stop-color="#fff"/>
      <stop offset="1" stop-color="#8ef07f"/>
    </linearGradient>
    <linearGradient id="linear-gradient1" x1="483.04" y1="77.15" x2="493.72" y2="77.15" xlink:href="#linear-gradient"/>
  </defs>
  <path class="st1" d="M111.08,167.78"/>
  <path class="st4" d="M107.9,151.13c2.9,2.73,6.02,4.77,9.53,5.98.62.25,1.31.32,1.85.56.51.28.95.66,1.56.73,4.52,2.37,9,4.48,13.62,6.85.74.35,1.51.7,2.29.91.77.19,1.66.48,2.25-.04.11.23-.03.51-.16.72-.46.57-1.03,1.06-1.63,1.48-5.51,4.07-12.85,4.06-19.08,1.86,0,0-1.32-.47-1.32-.47-1.41-.52-2.65-1.54-3.93-2.28-1.51-1.33-2.68-3.12-3.7-4.82-1.88-3.36-3.09-6.87-3.35-10.69,0,0,2.06-.79,2.06-.79h0Z"/>
  <path class="st4" d="M30.11,29.9c.41,2.88-.42,3.51-1.9,5.19-1.03,1.24-1.99,2.56-2.9,3.93-9.03,13.84-13.14,30.69-12.21,47.15.4,6.56,1.52,13.29,2.82,19.77,4.48,22.15,18.91,40.44,39.1,50.14,21.08,10.06,47.63,2.63,62.43-15.06,23.61-27.95,23.86-82.38,1.85-111.29-3.89-4.98-8.49-9.35-14.05-12.38-11.23-5.9-25.2-7.49-37.62-4.67-26.99,5.98-41.58,35.18-41.96,61.04-.12,13.56,3,27.61,11.52,38.44,17.61,21.94,47.64,30.04,74.91,29.31,13.95-.57,28.16-3.58,40.24-10.86,0,0,.19.32.19.32-6.08,3.63-12.61,6.48-19.43,8.41-38.35,10.89-96.29-1.36-109.01-44.12C13.84,59.48,26.48,14.99,65.32,3.78c16.7-4.63,35.18-2.19,49.95,7.09,11.3,7.41,19.55,18.98,24.57,31.28,14.27,35.55,9.44,89.29-21.53,114.81-18.56,15.73-46.1,20.56-68.34,10-16.13-7.84-30.29-20.84-38.28-37.09C-2.89,99.96-2.98,60.54,19.01,34.19c1.55-1.79,3.22-3.52,5.03-5.09,1.37-1.26,2.62-1.76,4.92-.84,0,0,1.14,1.64,1.14,1.64h0Z"/>
  <path class="st1" d="M107.63,158.87"/>
  <path class="st4" d="M172.46,98.82c-5.16,9.93-7.9,20.23-7.64,31.07-.12,16.83,7.71,32.47,26.11,32.5,18.95.05,26.51-14.41,26.49-31.95.29-10.89-2.24-21.21-6.38-31.62,10.74,11.13,17.44,27.6,14.92,43.31-1.48,10.55-6.57,21.46-16.13,27.17-9.52,5.72-21.52,6.74-31.92,2.75-16.69-6.29-23.88-26.12-21.78-42.73,1.62-11.65,7.68-22.94,16.34-30.51h0Z"/>
  <g>
    <path class="st4" d="M294.99,114.43c-6.51-10.01-19.13-15.78-30.33-10.35-10.22,4.79-16.16,16.95-17.87,27.64-1.1,7.54.52,15.23,4.48,21.45,3.82,6.21,9.91,12.14,17.34,13.63,12.74,2.66,26.34-6.83,30.13-18.97.9-3.61,1.13-7.41,1.58-11.13,0,0,0-.66,0-.66-.08-7.34-1.35-15.5-5.34-21.61h0ZM300.04,111.23c4.49,7.72,5.6,16.3,5.41,24.93.01.6-.21,2.1-.3,2.74-1.31,8.94-3.85,18.22-9.89,25.2-11.11,11.94-28.45,14.62-42.33,5.84-18.83-10.5-23.06-36.04-13.61-54.29,2.32-4.53,5.13-8.66,8.79-12.24,9.58-9.21,23.93-11.77,35.9-6.92,6.9,2.77,12.46,8.53,16.03,14.75h0Z"/>
    <path class="st4" d="M299.13,157.4c1.38,1.52,1.94,3.29,2.51,5.03.94,2.98,1.22,4.09,3.37,6.28,1.12,1.03,2.78,1.86,4.72,3.04,0,0,.02.25.02.25-1.75,1.39-3.83,2.25-6.31,2.3-7.37.09-11.76-9.76-9.12-16.02,0,0,4.81-.89,4.81-.89h0Z"/>
  </g>
  <path class="st0" d="M319.45,116.13"/>
  <g>
    <path class="st4" d="M363.3,163.34c-2.18,6.47-10.36,8.55-16.53,9.07-3.64.02-7.24-1.39-10.19-3.65-2.52-1.69-4.14-4.89-5.05-7.56-4.37-12.97-3.04-26.59-2.01-39.89.69-5.35,1.55-10.7,2.84-15.94,1.71-5.15,3.78-10.2,6.09-15.09-.07,6.41.46,12.88.24,19.15-.58,10.22-.63,20.61.7,30.74.92,6.58,1.96,13.5,4.38,19.39,1.15,2.17,3.41,3.44,5.69,4.38,4.29,1.76,10.09,2.93,13.83-.62h0Z"/>
    <path class="st4" d="M304.74,103.69c2.05-1.88,2.79-1.73,4.94-1.86,4.5.28,8.59,2.16,12.91,3.39,7.77,2.5,16.33,3.56,24.58,3.76,5.53.12,10.94-.41,16.28-1.75,2.1-.37,4.44-.77,6.46-1.38.64-.01.62-.06,1.61,0,0,0,.92.25.92.25,2.21,1.55-.94,4.46-2.22,5.45-3.67,3.38-8.46,4.95-13.21,6.11-14.02,3.22-34.07,2.58-46.86-4.44-1.51-.72-2.73-1.95-3.86-3.18-.66-.6-1.11-1.38-1.52-2.17-.3-.41-.42-.93-.48-1.46-.09-.58-.15-1.21.42-2.72h0Z"/>
  </g>
  <g>
    <path class="st4" d="M388.23,172.91c-2.23-9.45-5.32-18.63-6.95-28.29-2.03-12.42-2.48-28.19,8.52-37.04,6.16-4.88,13.78-7.54,21.47-8.26,7.66-.67,16.3-.37,22.47,5.17,2.05,1.77,4.1,4.88,3.42,7.84-.36,1.76-1.86,2.99-2.97,4.09-.93.83-1.9,1.61-2.97,2.16.87-2,1.28-4.43,1.13-6.5.25-3.04-4.91-4.68-7.64-5.5-10.17-3.33-22.32-.79-30.2,6.5-7.88,7.53-5.71,19.8-3.57,29.63,2.12,8.95,4.89,17.86,8.67,26.37,0,0-11.37,3.84-11.37,3.84h0Z"/>
    <path class="st4" d="M391.17,105.88c-9.59-1.56-14.21-8.72-9.66-17.89,10.17,1.22,13.62,9.02,9.66,17.89h0Z"/>
  </g>
  <path class="st4" d="M458.07,107.28c-12.26,8.76-17.89,28.13-12.19,41.75,2.84,6.82,9.04,11.35,16.09,13.36,7.51,2.39,16.31,2.34,23.72-.87,5.75-2.86,10.05-8.11,12.52-13.99,3.53-8.7,4.11-18.98.87-27.89-2.44-5.78-5.67-11.89-11.49-14.81-9.27-4.73-21.15-3.2-29.52,2.45h0ZM455.49,102.9c10.13-5.06,23.45-6.5,33.09.33,5.45,3.97,9.99,9.36,12.14,15.8,7.31,18.35,3.76,42.89-16.22,51.53-12.52,5.91-28.24,3.85-38.89-5.09-20.41-17.18-12.66-51.24,9.88-62.57h0Z"/>
  <path class="st4" d="M481.66,115.5c.76,2.38,1.63,4.91,3.59,6.59.59.51,1.55.63,2.12,0,.52-.56.64-1.58,0-2.12-.21-.18-.41-.37-.6-.58-.08-.09-.16-.19-.24-.28-.21-.24.14.2.04.05-.04-.05-.07-.1-.11-.15-.32-.45-.6-.94-.84-1.44-.05-.11-.11-.23-.16-.34-.03-.06-.05-.17-.09-.22.04.04.12.29.04.1-.11-.26-.21-.53-.31-.8-.19-.53-.37-1.07-.54-1.61-.24-.75-1.05-1.3-1.85-1.05-.75.24-1.3,1.04-1.05,1.85h0Z"/>
  <path class="st3" d="M498.79,102.16c2.9,3.77,8.43,4.29,11.97,1.42,3.05-2.48,3.91-6.9,2.37-10.23-2.13-4.59-8.6-6.53-12.8-3.33-3.55,2.71-4.47,8.33-1.54,12.14Z"/>
  <path class="st2" d="M485.02,79.6c1.55,1.87,4.4,2.2,6.18.85,1.54-1.16,1.92-3.29,1.08-4.93-1.16-2.26-4.52-3.28-6.64-1.79-1.79,1.26-2.19,3.98-.63,5.86Z"/>
</svg>